{
	"asset":{
		"generator":"Khronos glTF Blender I/O v4.1.62",
		"version":"2.0"
	},
	"extensionsUsed":[
		"KHR_texture_transform",
		"KHR_materials_specular"
	],
	"extensionsRequired":[
		"KHR_texture_transform"
	],
	"scene":0,
	"scenes":[
		{
			"name":"Scene",
			"nodes":[
				24,
				25
			]
		}
	],
	"nodes":[
		{
			"mesh":0,
			"name":"Plane.002",
			"scale":[
				1.030177354812622,
				1.030177354812622,
				1.030177354812622
			],
			"translation":[
				0,
				-56.962005615234375,
				0
			]
		},
		{
			"mesh":1,
			"name":"Plane.003",
			"scale":[
				1.030177354812622,
				1.030177354812622,
				1.030177354812622
			],
			"translation":[
				0,
				-56.962005615234375,
				0
			]
		},
		{
			"mesh":2,
			"name":"Plane.004",
			"scale":[
				1.030177354812622,
				1.030177354812622,
				1.030177354812622
			],
			"translation":[
				0,
				-56.962005615234375,
				0
			]
		},
		{
			"mesh":3,
			"name":"Plane.005",
			"scale":[
				1.030177354812622,
				1.030177354812622,
				1.030177354812622
			],
			"translation":[
				0,
				-56.962005615234375,
				0
			]
		},
		{
			"mesh":0,
			"name":"Plane.006",
			"rotation":[
				0,
				0.866025447845459,
				0,
				0.49999991059303284
			],
			"scale":[
				1.030177354812622,
				1.030177354812622,
				1.030177354812622
			],
			"translation":[
				0,
				-6.558316230773926,
				0
			]
		},
		{
			"mesh":1,
			"name":"Plane.007",
			"rotation":[
				0,
				0.866025447845459,
				0,
				0.49999991059303284
			],
			"scale":[
				1.030177354812622,
				1.030177354812622,
				1.030177354812622
			],
			"translation":[
				0,
				-6.558316230773926,
				0
			]
		},
		{
			"mesh":2,
			"name":"Plane.008",
			"rotation":[
				0,
				0.866025447845459,
				0,
				0.49999991059303284
			],
			"scale":[
				1.030177354812622,
				1.030177354812622,
				1.030177354812622
			],
			"translation":[
				0,
				-6.558316230773926,
				0
			]
		},
		{
			"mesh":3,
			"name":"Plane.009",
			"rotation":[
				0,
				0.866025447845459,
				0,
				0.49999991059303284
			],
			"scale":[
				1.030177354812622,
				1.030177354812622,
				1.030177354812622
			],
			"translation":[
				0,
				-6.558316230773926,
				0
			]
		},
		{
			"mesh":0,
			"name":"Plane.010",
			"rotation":[
				0,
				-0.9017012715339661,
				0,
				0.43235960602760315
			],
			"scale":[
				1.030177354812622,
				1.030177354812622,
				1.030177354812622
			],
			"translation":[
				0,
				-6.558316230773926,
				0
			]
		},
		{
			"mesh":1,
			"name":"Plane.011",
			"rotation":[
				0,
				-0.9017012715339661,
				0,
				0.43235960602760315
			],
			"scale":[
				1.030177354812622,
				1.030177354812622,
				1.030177354812622
			],
			"translation":[
				0,
				-6.558316230773926,
				0
			]
		},
		{
			"mesh":2,
			"name":"Plane.012",
			"rotation":[
				0,
				-0.9017012715339661,
				0,
				0.43235960602760315
			],
			"scale":[
				1.030177354812622,
				1.030177354812622,
				1.030177354812622
			],
			"translation":[
				0,
				-6.558316230773926,
				0
			]
		},
		{
			"mesh":3,
			"name":"Plane.013",
			"rotation":[
				0,
				-0.9017012715339661,
				0,
				0.43235960602760315
			],
			"scale":[
				1.030177354812622,
				1.030177354812622,
				1.030177354812622
			],
			"translation":[
				0,
				-6.558316230773926,
				0
			]
		},
		{
			"mesh":0,
			"name":"Plane.014",
			"rotation":[
				0,
				0.9936404228210449,
				0,
				0.11259963363409042
			],
			"scale":[
				1.030177354812622,
				1.030177354812622,
				1.030177354812622
			],
			"translation":[
				0,
				133.66616821289062,
				0
			]
		},
		{
			"mesh":1,
			"name":"Plane.015",
			"rotation":[
				0,
				0.9936404228210449,
				0,
				0.11259963363409042
			],
			"scale":[
				1.030177354812622,
				1.030177354812622,
				1.030177354812622
			],
			"translation":[
				0,
				133.66616821289062,
				0
			]
		},
		{
			"mesh":2,
			"name":"Plane.016",
			"rotation":[
				0,
				0.9936404228210449,
				0,
				0.11259963363409042
			],
			"scale":[
				1.030177354812622,
				1.030177354812622,
				1.030177354812622
			],
			"translation":[
				0,
				133.66616821289062,
				0
			]
		},
		{
			"mesh":3,
			"name":"Plane.017",
			"rotation":[
				0,
				0.9936404228210449,
				0,
				0.11259963363409042
			],
			"scale":[
				1.030177354812622,
				1.030177354812622,
				1.030177354812622
			],
			"translation":[
				0,
				133.66616821289062,
				0
			]
		},
		{
			"mesh":0,
			"name":"Plane.018",
			"rotation":[
				0,
				-0.5943342447280884,
				0,
				0.8042181134223938
			],
			"scale":[
				1.030177354812622,
				1.030177354812622,
				1.030177354812622
			],
			"translation":[
				0,
				184.06985473632812,
				0
			]
		},
		{
			"mesh":1,
			"name":"Plane.019",
			"rotation":[
				0,
				-0.5943342447280884,
				0,
				0.8042181134223938
			],
			"scale":[
				1.030177354812622,
				1.030177354812622,
				1.030177354812622
			],
			"translation":[
				0,
				184.06985473632812,
				0
			]
		},
		{
			"mesh":2,
			"name":"Plane.020",
			"rotation":[
				0,
				-0.5943342447280884,
				0,
				0.8042181134223938
			],
			"scale":[
				1.030177354812622,
				1.030177354812622,
				1.030177354812622
			],
			"translation":[
				0,
				184.06985473632812,
				0
			]
		},
		{
			"mesh":3,
			"name":"Plane.021",
			"rotation":[
				0,
				-0.5943342447280884,
				0,
				0.8042181134223938
			],
			"scale":[
				1.030177354812622,
				1.030177354812622,
				1.030177354812622
			],
			"translation":[
				0,
				184.06985473632812,
				0
			]
		},
		{
			"mesh":0,
			"name":"Plane.022",
			"rotation":[
				0,
				0.32807862758636475,
				0,
				0.944650411605835
			],
			"scale":[
				1.030177354812622,
				1.030177354812622,
				1.030177354812622
			],
			"translation":[
				0,
				184.06985473632812,
				0
			]
		},
		{
			"mesh":1,
			"name":"Plane.023",
			"rotation":[
				0,
				0.32807862758636475,
				0,
				0.944650411605835
			],
			"scale":[
				1.030177354812622,
				1.030177354812622,
				1.030177354812622
			],
			"translation":[
				0,
				184.06985473632812,
				0
			]
		},
		{
			"mesh":2,
			"name":"Plane.024",
			"rotation":[
				0,
				0.32807862758636475,
				0,
				0.944650411605835
			],
			"scale":[
				1.030177354812622,
				1.030177354812622,
				1.030177354812622
			],
			"translation":[
				0,
				184.06985473632812,
				0
			]
		},
		{
			"mesh":3,
			"name":"Plane.025",
			"rotation":[
				0,
				0.32807862758636475,
				0,
				0.944650411605835
			],
			"scale":[
				1.030177354812622,
				1.030177354812622,
				1.030177354812622
			],
			"translation":[
				0,
				184.06985473632812,
				0
			]
		},
		{
			"children":[
				0,
				1,
				2,
				3,
				4,
				5,
				6,
				7,
				8,
				9,
				10,
				11,
				12,
				13,
				14,
				15,
				16,
				17,
				18,
				19,
				20,
				21,
				22,
				23
			],
			"mesh":4,
			"name":"background"
		},
		{
			"camera":0,
			"name":"Camera.001",
			"rotation":[
				-0.002493041567504406,
				-0.6996591687202454,
				-0.0024398111272603273,
				0.7144683003425598
			],
			"translation":[
				-8.907415390014648,
				2.1282687187194824,
				0.8731394410133362
			]
		}
	],
	"cameras":[
		{
			"name":"Camera",
			"perspective":{
				"aspectRatio":1,
				"yfov":0.6911112070083618,
				"zfar":1000,
				"znear":0.10000000149011612
			},
			"type":"perspective"
		}
	],
	"animations":[
		{
			"channels":[
				{
					"sampler":0,
					"target":{
						"node":24,
						"path":"rotation"
					}
				}
			],
			"name":"back_idle",
			"samplers":[
				{
					"input":26,
					"interpolation":"LINEAR",
					"output":27
				}
			]
		},
		{
			"channels":[
				{
					"sampler":0,
					"target":{
						"node":24,
						"path":"translation"
					}
				},
				{
					"sampler":1,
					"target":{
						"node":24,
						"path":"scale"
					}
				}
			],
			"name":"back_progress",
			"samplers":[
				{
					"input":28,
					"interpolation":"LINEAR",
					"output":29
				},
				{
					"input":28,
					"interpolation":"LINEAR",
					"output":30
				}
			]
		}
	],
	"materials":[
		{
			"alphaCutoff":0.5,
			"alphaMode":"MASK",
			"doubleSided":true,
			"emissiveFactor":[
				1,
				1,
				1
			],
			"emissiveTexture":{
				"index":0
			},
			"name":"planets_a",
			"pbrMetallicRoughness":{
				"baseColorTexture":{
					"index":1
				},
				"metallicFactor":0,
				"roughnessFactor":0.5
			}
		},
		{
			"emissiveFactor":[
				1,
				1,
				1
			],
			"emissiveTexture":{
				"extensions":{
					"KHR_texture_transform":{
						"offset":[
							0,
							-7
						],
						"scale":[
							8,
							8
						]
					}
				},
				"index":2
			},
			"extensions":{
				"KHR_materials_specular":{
					"specularFactor":0
				}
			},
			"name":"MAT_Outfit_emissive",
			"pbrMetallicRoughness":{
				"baseColorTexture":{
					"extensions":{
						"KHR_texture_transform":{
							"offset":[
								0,
								-7
							],
							"scale":[
								8,
								8
							]
						}
					},
					"index":3
				},
				"metallicFactor":0
			}
		}
	],
	"meshes":[
		{
			"name":"Plane.008",
			"primitives":[
				{
					"attributes":{
						"POSITION":0,
						"NORMAL":1,
						"TEXCOORD_0":2,
						"TANGENT":3
					},
					"indices":4,
					"material":0
				}
			]
		},
		{
			"name":"Plane.009",
			"primitives":[
				{
					"attributes":{
						"POSITION":5,
						"NORMAL":6,
						"TEXCOORD_0":7,
						"TANGENT":8
					},
					"indices":9,
					"material":0
				}
			]
		},
		{
			"name":"Plane.011",
			"primitives":[
				{
					"attributes":{
						"POSITION":10,
						"NORMAL":11,
						"TEXCOORD_0":12,
						"TANGENT":13
					},
					"indices":14,
					"material":0
				}
			]
		},
		{
			"name":"Plane.012",
			"primitives":[
				{
					"attributes":{
						"POSITION":15,
						"NORMAL":16,
						"TEXCOORD_0":17,
						"TANGENT":18
					},
					"indices":19,
					"material":0
				}
			]
		},
		{
			"name":"Plane",
			"primitives":[
				{
					"attributes":{
						"POSITION":20,
						"NORMAL":21,
						"TEXCOORD_0":22,
						"TANGENT":23,
						"COLOR_0":24
					},
					"indices":25,
					"material":1
				}
			]
		}
	],
	"textures":[
		{
			"sampler":0,
			"source":0
		},
		{
			"sampler":0,
			"source":0
		},
		{
			"sampler":0,
			"source":1
		},
		{
			"sampler":0,
			"source":1
		}
	],
	"images":[
		{
			"mimeType":"image/png",
			"name":"BTLN_Planets_A",
			"uri":"BTLN_Planets_A.png"
		},
		{
			"mimeType":"image/jpeg",
			"name":"BTLN_Jet_Back_A",
			"uri":"BTLN_Jet_Back_A.jpg"
		}
	],
	"accessors":[
		{
			"bufferView":0,
			"componentType":5126,
			"count":4,
			"max":[
				88.23365783691406,
				87.85587310791016,
				26.38072967529297
			],
			"min":[
				88.23365783691406,
				60.959556579589844,
				-0.5155887603759766
			],
			"type":"VEC3"
		},
		{
			"bufferView":1,
			"componentType":5126,
			"count":4,
			"type":"VEC3"
		},
		{
			"bufferView":2,
			"componentType":5126,
			"count":4,
			"type":"VEC2"
		},
		{
			"bufferView":3,
			"componentType":5126,
			"count":4,
			"type":"VEC4"
		},
		{
			"bufferView":4,
			"componentType":5123,
			"count":6,
			"type":"SCALAR"
		},
		{
			"bufferView":5,
			"componentType":5126,
			"count":4,
			"max":[
				58.83690643310547,
				200.77540588378906,
				11.678174018859863
			],
			"min":[
				58.83690643310547,
				173.8790740966797,
				-15.218144416809082
			],
			"type":"VEC3"
		},
		{
			"bufferView":6,
			"componentType":5126,
			"count":4,
			"type":"VEC3"
		},
		{
			"bufferView":7,
			"componentType":5126,
			"count":4,
			"type":"VEC2"
		},
		{
			"bufferView":8,
			"componentType":5126,
			"count":4,
			"type":"VEC4"
		},
		{
			"bufferView":9,
			"componentType":5123,
			"count":6,
			"type":"SCALAR"
		},
		{
			"bufferView":10,
			"componentType":5126,
			"count":4,
			"max":[
				51.67683410644531,
				47.81500244140625,
				68.36934661865234
			],
			"min":[
				38.228675842285156,
				20.91868019104004,
				45.076454162597656
			],
			"type":"VEC3"
		},
		{
			"bufferView":11,
			"componentType":5126,
			"count":4,
			"type":"VEC3"
		},
		{
			"bufferView":12,
			"componentType":5126,
			"count":4,
			"type":"VEC2"
		},
		{
			"bufferView":13,
			"componentType":5126,
			"count":4,
			"type":"VEC4"
		},
		{
			"bufferView":14,
			"componentType":5123,
			"count":6,
			"type":"SCALAR"
		},
		{
			"bufferView":15,
			"componentType":5126,
			"count":4,
			"max":[
				75.42362213134766,
				132.00137329101562,
				-20.157032012939453
			],
			"min":[
				66.22454071044922,
				105.10504913330078,
				-45.43130874633789
			],
			"type":"VEC3"
		},
		{
			"bufferView":16,
			"componentType":5126,
			"count":4,
			"type":"VEC3"
		},
		{
			"bufferView":17,
			"componentType":5126,
			"count":4,
			"type":"VEC2"
		},
		{
			"bufferView":18,
			"componentType":5126,
			"count":4,
			"type":"VEC4"
		},
		{
			"bufferView":19,
			"componentType":5123,
			"count":6,
			"type":"SCALAR"
		},
		{
			"bufferView":20,
			"componentType":5126,
			"count":66,
			"max":[
				131.86270141601562,
				410.83721923828125,
				138.04376220703125
			],
			"min":[
				-131.86270141601562,
				-50.60067367553711,
				-125.681640625
			],
			"type":"VEC3"
		},
		{
			"bufferView":21,
			"componentType":5126,
			"count":66,
			"type":"VEC3"
		},
		{
			"bufferView":22,
			"componentType":5126,
			"count":66,
			"type":"VEC2"
		},
		{
			"bufferView":23,
			"componentType":5126,
			"count":66,
			"type":"VEC4"
		},
		{
			"bufferView":24,
			"componentType":5126,
			"count":66,
			"type":"VEC3"
		},
		{
			"bufferView":25,
			"componentType":5123,
			"count":192,
			"type":"SCALAR"
		},
		{
			"bufferView":26,
			"componentType":5126,
			"count":3001,
			"max":[
				125
			],
			"min":[
				0
			],
			"type":"SCALAR"
		},
		{
			"bufferView":27,
			"componentType":5126,
			"count":3001,
			"type":"VEC4"
		},
		{
			"bufferView":28,
			"componentType":5126,
			"count":1001,
			"max":[
				41.666666666666664
			],
			"min":[
				0
			],
			"type":"SCALAR"
		},
		{
			"bufferView":29,
			"componentType":5126,
			"count":1001,
			"type":"VEC3"
		},
		{
			"bufferView":30,
			"componentType":5126,
			"count":1001,
			"type":"VEC3"
		}
	],
	"bufferViews":[
		{
			"buffer":0,
			"byteLength":48,
			"byteOffset":0,
			"target":34962
		},
		{
			"buffer":0,
			"byteLength":48,
			"byteOffset":48,
			"target":34962
		},
		{
			"buffer":0,
			"byteLength":32,
			"byteOffset":96,
			"target":34962
		},
		{
			"buffer":0,
			"byteLength":64,
			"byteOffset":128,
			"target":34962
		},
		{
			"buffer":0,
			"byteLength":12,
			"byteOffset":192,
			"target":34963
		},
		{
			"buffer":0,
			"byteLength":48,
			"byteOffset":204,
			"target":34962
		},
		{
			"buffer":0,
			"byteLength":48,
			"byteOffset":252,
			"target":34962
		},
		{
			"buffer":0,
			"byteLength":32,
			"byteOffset":300,
			"target":34962
		},
		{
			"buffer":0,
			"byteLength":64,
			"byteOffset":332,
			"target":34962
		},
		{
			"buffer":0,
			"byteLength":12,
			"byteOffset":396,
			"target":34963
		},
		{
			"buffer":0,
			"byteLength":48,
			"byteOffset":408,
			"target":34962
		},
		{
			"buffer":0,
			"byteLength":48,
			"byteOffset":456,
			"target":34962
		},
		{
			"buffer":0,
			"byteLength":32,
			"byteOffset":504,
			"target":34962
		},
		{
			"buffer":0,
			"byteLength":64,
			"byteOffset":536,
			"target":34962
		},
		{
			"buffer":0,
			"byteLength":12,
			"byteOffset":600,
			"target":34963
		},
		{
			"buffer":0,
			"byteLength":48,
			"byteOffset":612,
			"target":34962
		},
		{
			"buffer":0,
			"byteLength":48,
			"byteOffset":660,
			"target":34962
		},
		{
			"buffer":0,
			"byteLength":32,
			"byteOffset":708,
			"target":34962
		},
		{
			"buffer":0,
			"byteLength":64,
			"byteOffset":740,
			"target":34962
		},
		{
			"buffer":0,
			"byteLength":12,
			"byteOffset":804,
			"target":34963
		},
		{
			"buffer":0,
			"byteLength":792,
			"byteOffset":816,
			"target":34962
		},
		{
			"buffer":0,
			"byteLength":792,
			"byteOffset":1608,
			"target":34962
		},
		{
			"buffer":0,
			"byteLength":528,
			"byteOffset":2400,
			"target":34962
		},
		{
			"buffer":0,
			"byteLength":1056,
			"byteOffset":2928,
			"target":34962
		},
		{
			"buffer":0,
			"byteLength":792,
			"byteOffset":3984,
			"target":34962
		},
		{
			"buffer":0,
			"byteLength":384,
			"byteOffset":4776,
			"target":34963
		},
		{
			"buffer":0,
			"byteLength":12004,
			"byteOffset":5160
		},
		{
			"buffer":0,
			"byteLength":48016,
			"byteOffset":17164
		},
		{
			"buffer":0,
			"byteLength":4004,
			"byteOffset":65180
		},
		{
			"buffer":0,
			"byteLength":12012,
			"byteOffset":69184
		},
		{
			"buffer":0,
			"byteLength":12012,
			"byteOffset":81196
		}
	],
	"samplers":[
		{
			"magFilter":9729,
			"minFilter":9987
		}
	],
	"buffers":[
		{
			"byteLength":93208,
			"uri":"BTLN_Lemon_Jet_Back.bin"
		}
	]
}
